<svg width="22" height="22" viewBox="0 0 22 22" fill="none" xmlns="http://www.w3.org/2000/svg">
<g clip-path="url(#clip0_126_982)">
<path d="M15.2072 8.25H13.7497V3.66667C13.7497 3.1625 13.3372 2.75 12.833 2.75H9.16634C8.66217 2.75 8.24967 3.1625 8.24967 3.66667V8.25H6.79217C5.97634 8.25 5.56384 9.24 6.14134 9.8175L10.3488 14.025C10.7063 14.3825 11.2838 14.3825 11.6413 14.025L15.8488 9.8175C16.4263 9.24 16.023 8.25 15.2072 8.25ZM4.58301 17.4167C4.58301 17.9208 4.99551 18.3333 5.49967 18.3333H16.4997C17.0038 18.3333 17.4163 17.9208 17.4163 17.4167C17.4163 16.9125 17.0038 16.5 16.4997 16.5H5.49967C4.99551 16.5 4.58301 16.9125 4.58301 17.4167Z" fill="#4D4D4D"/>
</g>
<defs>
<clipPath id="clip0_126_982">
<rect width="22" height="22" fill="white"/>
</clipPath>
</defs>
</svg>
