<svg width="25" height="14" viewBox="0 0 25 14" fill="none" xmlns="http://www.w3.org/2000/svg">
<path fill-rule="evenodd" clip-rule="evenodd" d="M11.3372 3C11.3372 4.66 9.89156 6 8.08721 6C6.28286 6 4.82634 4.66 4.82634 3C4.82634 1.34 6.28286 0 8.08721 0C9.89156 0 11.3372 1.34 11.3372 3ZM20.0329 3C20.0329 4.66 18.5872 6 16.7829 6C14.9785 6 13.522 4.66 13.522 3C13.522 1.34 14.9785 0 16.7829 0C18.5872 0 20.0329 1.34 20.0329 3ZM8.08721 8C5.5546 8 0.478516 9.17 0.478516 11.5V13C0.478516 13.55 0.967646 14 1.56547 14H14.609C15.2068 14 15.6959 13.55 15.6959 13V11.5C15.6959 9.17 10.6198 8 8.08721 8ZM15.7285 8.05C16.109 8.02 16.4676 8 16.7829 8C19.3155 8 24.3916 9.17 24.3916 11.5V13C24.3916 13.55 23.9024 14 23.3046 14H17.6742C17.7937 13.69 17.8698 13.35 17.8698 13V11.5C17.8698 10.03 17.0111 8.92 15.772 8.09C15.7687 8.08697 15.7654 8.08303 15.7618 8.07872C15.7535 8.06881 15.7437 8.05697 15.7285 8.05Z" fill="#4D4D4D"/>
</svg>
