<svg width="11" height="10" viewBox="0 0 11 10" fill="none" xmlns="http://www.w3.org/2000/svg">
<path d="M5.5 3.75C5.12 3.75 4.8125 4.02931 4.8125 4.375V7.5C4.8125 7.84569 5.12 8.125 5.5 8.125C5.88 8.125 6.1875 7.84569 6.1875 7.5V4.375C6.1875 4.02931 5.88 3.75 5.5 3.75Z" fill="#6B6C7E"/>
<path d="M6.1875 2.5C6.1875 2.84515 5.88 3.125 5.5 3.125C5.12 3.125 4.8125 2.84515 4.8125 2.5C4.8125 2.15485 5.12 1.875 5.5 1.875C5.88 1.875 6.1875 2.15485 6.1875 2.5Z" fill="#6B6C7E"/>
<path fill-rule="evenodd" clip-rule="evenodd" d="M5.5 0C6.96967 0 8.35071 0.519562 9.38867 1.46484C10.4286 2.40822 11 3.66409 11 5C11 6.33591 10.4286 7.58987 9.38867 8.53516C8.35071 9.48044 6.96967 10 5.5 10C4.03033 10 2.65131 9.48044 1.61133 8.53516C0.57135 7.59178 0 6.33591 0 5C0 3.66409 0.57135 2.40822 1.61133 1.46484C2.64929 0.519562 4.03033 0 5.5 0ZM1.375 5C1.375 7.06833 3.22467 8.75 5.5 8.75C7.77533 8.75 9.625 7.06833 9.625 5C9.625 2.93167 7.77533 1.25 5.5 1.25C3.22467 1.25 1.375 2.93167 1.375 5Z" fill="#6B6C7E"/>
</svg>
