<svg width="27" height="24" viewBox="0 0 27 24" fill="none" xmlns="http://www.w3.org/2000/svg">
<path fill-rule="evenodd" clip-rule="evenodd" d="M22.1306 3H4.73934C3.54369 3 2.56543 3.9 2.56543 5V19C2.56543 20.1 3.54369 21 4.73934 21H22.1306C23.3263 21 24.3046 20.1 24.3046 19V5C24.3046 3.9 23.3263 3 22.1306 3ZM10.1741 17H6.91326C6.31543 17 5.8263 16.55 5.8263 16C5.8263 15.45 6.31543 15 6.91326 15H10.1741C10.772 15 11.2611 15.45 11.2611 16C11.2611 16.55 10.772 17 10.1741 17ZM10.1741 13H6.91326C6.31543 13 5.8263 12.55 5.8263 12C5.8263 11.45 6.31543 11 6.91326 11H10.1741C10.772 11 11.2611 11.45 11.2611 12C11.2611 12.55 10.772 13 10.1741 13ZM10.1741 9H6.91326C6.31543 9 5.8263 8.55 5.8263 8C5.8263 7.45 6.31543 7 6.91326 7H10.1741C10.772 7 11.2611 7.45 11.2611 8C11.2611 8.55 10.772 9 10.1741 9ZM20.7176 11.12L17.272 14.29C16.848 14.68 16.1524 14.68 15.7285 14.29L14.1959 12.87C13.772 12.48 13.772 11.85 14.1959 11.46C14.6198 11.07 15.3046 11.07 15.7285 11.46L16.5002 12.17L19.185 9.7C19.6089 9.31 20.2937 9.31 20.7176 9.7L20.7285 9.71C21.1415 10.1 21.1415 10.74 20.7176 11.12Z" fill="black" fill-opacity="0.7"/>
</svg>
