<svg width="22" height="12" viewBox="0 0 22 12" fill="none" xmlns="http://www.w3.org/2000/svg">
<path d="M15.6655 0.85L17.2057 2.29L11.9862 7.17L8.46733 3.88C8.0502 3.49 7.37637 3.49 6.95924 3.88L0.541852 9.89C0.124721 10.28 0.124721 10.91 0.541852 11.3C0.958982 11.69 1.63281 11.69 2.04994 11.3L7.70794 6L11.2268 9.29C11.6439 9.68 12.3178 9.68 12.7349 9.29L18.7138 3.71L20.2539 5.15C20.5855 5.46 21.1631 5.24 21.1631 4.8V0.5C21.1738 0.22 20.9385 0 20.639 0H16.0505C15.5692 0 15.3339 0.54 15.6655 0.85Z" fill="#1B59F8"/>
</svg>
